<?xml version="1.0" standalone="no"?>
<!DOCTYPE svg PUBLIC "-//W3C//DTD SVG 20010904//EN"
 "http://www.w3.org/TR/2001/REC-SVG-20010904/DTD/svg10.dtd">
<svg version="1.0" xmlns="http://www.w3.org/2000/svg"
 width="3000.000000pt" height="3000.000000pt" viewBox="0 0 3000.000000 3000.000000"
 preserveAspectRatio="xMidYMid meet">
<metadata>
Created by potrace 1.14, written by Peter Selinger 2001-2017
</metadata>
<g transform="translate(0.000000,3000.000000) scale(0.100000,-0.100000)"
fill="#000000" stroke="none">
<path d="M14549 27986 c-2 -2 -76 -7 -164 -11 -173 -7 -253 -11 -355 -20 -36
-3 -99 -7 -140 -10 -41 -3 -91 -7 -110 -10 -19 -2 -62 -7 -95 -10 -33 -3 -82
-8 -110 -11 -27 -3 -66 -7 -85 -9 -19 -1 -55 -6 -80 -9 -25 -3 -63 -9 -85 -11
-106 -14 -187 -25 -246 -34 -35 -5 -82 -12 -104 -16 -22 -3 -51 -8 -65 -10
-14 -2 -81 -14 -150 -25 -69 -12 -183 -33 -254 -47 -71 -13 -136 -26 -145 -28
-39 -7 -265 -58 -356 -79 -55 -13 -116 -28 -135 -32 -19 -4 -37 -8 -40 -9 -3
-1 -18 -5 -35 -9 -156 -40 -546 -149 -595 -167 -14 -5 -34 -11 -45 -14 -11 -2
-90 -27 -175 -55 -85 -28 -159 -53 -165 -54 -5 -2 -17 -6 -25 -9 -8 -3 -35
-12 -60 -21 -54 -18 -344 -125 -380 -139 -14 -6 -30 -11 -36 -12 -6 -2 -27
-10 -45 -18 -19 -8 -65 -27 -104 -42 -78 -31 -91 -36 -155 -63 -203 -87 -335
-145 -390 -170 -36 -16 -87 -40 -115 -52 -64 -28 -541 -267 -620 -310 -33 -18
-89 -48 -125 -68 -113 -62 -394 -224 -422 -243 -14 -11 -28 -19 -31 -19 -6 0
-249 -151 -353 -220 -42 -27 -78 -50 -80 -50 -7 0 -374 -254 -488 -337 -34
-24 -71 -52 -84 -61 -21 -15 -97 -72 -208 -157 -136 -103 -481 -382 -514 -415
-3 -3 -36 -32 -75 -65 -38 -33 -75 -64 -81 -70 -41 -36 -172 -154 -193 -173
-247 -224 -610 -587 -836 -837 -44 -49 -84 -93 -90 -99 -11 -12 -124 -142
-165 -190 -14 -16 -29 -34 -35 -40 -5 -6 -44 -51 -85 -101 -41 -49 -79 -95
-85 -101 -5 -6 -21 -26 -35 -44 -14 -18 -61 -79 -106 -134 -71 -89 -263 -342
-319 -421 -11 -15 -34 -46 -50 -69 -17 -22 -38 -52 -47 -66 -9 -14 -71 -104
-137 -200 -465 -678 -931 -1539 -1227 -2265 -25 -60 -53 -128 -63 -150 -70
-154 -308 -828 -386 -1095 -20 -69 -50 -170 -66 -225 -34 -113 -147 -562 -179
-705 -20 -89 -23 -106 -34 -162 -3 -13 -18 -90 -35 -173 -28 -145 -45 -232
-56 -305 -3 -19 -7 -46 -10 -60 -3 -14 -7 -38 -9 -55 -7 -46 -18 -118 -21
-136 -2 -9 -6 -40 -10 -70 -3 -30 -8 -61 -10 -69 -2 -8 -7 -40 -10 -70 -3 -30
-8 -66 -10 -80 -2 -14 -7 -50 -10 -80 -3 -30 -8 -71 -10 -90 -6 -42 -12 -94
-20 -180 -3 -36 -8 -85 -11 -110 -7 -67 -13 -140 -19 -238 -3 -48 -7 -109 -10
-137 -26 -304 -27 -1364 0 -1635 2 -19 6 -80 10 -135 11 -162 22 -288 40 -450
3 -27 8 -72 11 -100 3 -27 7 -66 9 -85 10 -77 17 -126 19 -145 2 -11 7 -47 11
-80 4 -33 9 -67 10 -75 1 -8 6 -35 10 -60 4 -25 9 -52 10 -60 1 -8 6 -40 10
-70 8 -59 10 -69 25 -145 5 -27 12 -63 15 -80 2 -16 7 -41 9 -55 3 -14 7 -41
10 -60 3 -19 21 -111 41 -205 20 -93 40 -190 45 -215 5 -25 25 -110 45 -190
20 -80 39 -156 41 -169 3 -13 19 -74 35 -135 17 -61 32 -118 34 -126 8 -35
115 -399 124 -421 5 -13 20 -58 31 -99 12 -41 26 -84 30 -95 5 -11 27 -75 50
-143 22 -67 44 -132 49 -145 5 -12 18 -47 29 -77 187 -509 354 -894 594 -1375
55 -110 114 -227 132 -260 118 -219 141 -259 316 -560 81 -140 188 -310 326
-519 21 -33 48 -74 59 -91 11 -18 33 -49 48 -71 15 -21 81 -113 145 -204 65
-91 144 -200 177 -244 33 -43 67 -88 75 -100 50 -72 464 -581 500 -616 4 -4
70 -79 155 -176 305 -350 830 -864 1230 -1204 28 -23 61 -52 75 -64 24 -20
178 -147 210 -173 8 -7 45 -36 81 -65 36 -29 81 -64 99 -78 18 -14 45 -35 59
-46 34 -28 203 -155 231 -174 13 -8 35 -24 49 -36 49 -39 434 -306 566 -391
98 -63 333 -211 379 -238 178 -104 444 -255 546 -311 182 -98 758 -384 775
-384 2 0 37 -16 79 -35 200 -92 540 -231 776 -316 91 -33 174 -64 185 -69 56
-24 631 -210 697 -225 13 -2 79 -21 148 -40 221 -63 610 -160 760 -189 14 -2
93 -18 175 -34 158 -32 267 -53 300 -57 11 -2 61 -10 110 -19 50 -8 108 -18
130 -21 23 -3 50 -7 61 -9 12 -2 45 -7 74 -11 29 -4 62 -9 74 -11 12 -2 39 -6
61 -8 22 -3 99 -12 170 -21 183 -22 265 -31 370 -40 39 -3 88 -8 110 -10 22
-3 83 -7 135 -10 52 -3 124 -8 160 -11 356 -25 1348 -25 1610 1 19 2 80 6 135
9 55 4 120 8 145 11 25 2 68 7 95 9 115 11 173 16 215 21 25 3 63 8 85 10 38
4 106 12 170 21 17 2 50 6 75 9 52 7 244 34 280 40 14 2 43 7 65 10 22 3 63
10 90 15 28 5 61 11 75 14 14 2 43 7 65 11 22 4 49 9 60 11 84 16 133 25 150
28 11 2 56 12 100 21 301 62 779 180 1030 255 39 12 77 23 85 25 8 2 65 20
125 39 61 19 112 35 115 35 15 1 535 184 587 207 17 8 34 14 37 14 19 0 645
258 716 295 14 7 41 20 60 28 137 59 541 258 705 347 722 390 1218 712 1885
1221 52 40 97 75 100 78 3 3 52 44 110 90 58 47 166 137 240 200 172 147 186
159 228 199 20 18 54 49 76 68 223 194 702 676 956 963 36 41 70 79 75 85 10
10 101 116 155 180 14 16 30 34 35 40 6 6 28 34 50 61 22 28 43 52 46 55 3 3
76 95 163 205 86 110 160 205 165 211 31 38 199 270 238 329 14 22 29 42 33
45 7 5 276 410 336 505 18 28 59 95 93 150 34 55 66 107 71 115 5 8 37 62 70
120 34 58 65 112 70 120 26 42 77 134 127 229 31 58 59 111 64 116 9 12 279
552 279 559 0 2 24 55 54 117 62 132 75 161 111 249 15 36 37 88 49 115 115
257 332 851 444 1220 41 133 103 343 107 364 2 9 20 75 39 147 19 72 38 145
41 164 3 18 8 37 11 42 3 5 8 21 10 36 3 15 11 52 19 82 12 48 50 217 60 270
2 10 13 62 25 116 12 55 23 112 26 129 2 16 10 64 19 105 8 41 17 91 20 110 3
19 10 61 16 92 16 91 17 97 34 218 9 63 18 126 20 140 5 28 21 151 29 220 3
25 10 86 16 135 11 100 16 147 25 250 12 137 14 161 20 255 3 52 8 113 10 135
27 257 27 1191 0 1615 -11 182 -15 238 -19 280 -3 25 -8 77 -11 115 -3 39 -8
89 -10 113 -3 23 -7 63 -10 90 -12 117 -17 159 -21 182 -2 14 -6 50 -9 80 -3
30 -8 66 -10 80 -3 14 -7 43 -10 65 -3 22 -8 55 -11 73 -3 17 -7 49 -10 70
-21 170 -121 692 -184 962 -4 19 -15 67 -24 105 -9 39 -20 88 -26 110 -6 22
-13 49 -15 60 -10 44 -60 228 -97 355 -21 74 -41 143 -43 153 -7 29 -93 307
-116 372 -11 33 -22 65 -23 70 -2 6 -6 17 -9 25 -3 8 -35 101 -72 205 -59 167
-220 583 -260 669 -7 17 -25 58 -38 91 -14 33 -39 89 -55 125 -16 36 -39 85
-50 110 -150 334 -368 759 -561 1093 -28 49 -51 93 -51 98 0 5 -3 9 -8 9 -4 0
-16 17 -27 38 -11 20 -73 122 -137 226 -65 104 -118 192 -118 197 0 4 -3 9 -7
11 -5 2 -57 77 -117 168 -94 142 -225 331 -263 380 -6 8 -80 107 -164 220 -84
113 -156 207 -159 210 -3 3 -59 73 -125 155 -66 83 -125 155 -131 160 -6 6
-37 41 -70 80 -32 38 -63 75 -69 81 -5 6 -31 35 -57 65 -75 88 -86 100 -176
198 -282 307 -716 737 -942 931 -14 12 -41 36 -61 53 -19 18 -60 53 -90 79
-30 26 -65 56 -79 68 -51 44 -256 213 -370 304 -158 126 -496 375 -660 487
-52 35 -101 70 -108 77 -7 6 -17 12 -22 12 -5 0 -15 6 -22 13 -11 10 -255 169
-393 255 -22 14 -52 33 -67 44 -15 10 -30 18 -34 18 -4 0 -15 6 -23 14 -23 20
-463 270 -626 356 -252 133 -567 286 -790 385 -121 53 -233 103 -250 110 -234
104 -743 291 -1144 420 -84 27 -372 113 -401 120 -8 2 -91 23 -185 48 -213 56
-359 92 -500 122 -136 30 -165 36 -190 40 -11 2 -77 15 -147 29 -70 14 -156
30 -190 36 -35 5 -75 12 -90 15 -71 13 -86 15 -128 21 -25 3 -52 7 -60 10 -8
2 -80 13 -160 23 -80 11 -161 22 -180 25 -35 5 -100 13 -177 21 -24 3 -64 7
-89 10 -25 3 -73 8 -107 10 -34 3 -71 7 -82 9 -11 3 -69 8 -130 11 -60 4 -117
8 -125 10 -8 2 -67 6 -130 10 -63 4 -151 9 -195 12 -94 5 -1061 14 -1066 9z"/>
</g>
</svg>
